<?xml version="1.0" encoding="UTF-8"?>
<svg version="1.1" xmlns="http://www.w3.org/2000/svg" width="16" height="16">
<path d="M0 0 C0.99 0 1.98 0 3 0 C3 2.97 3 5.94 3 9 C5.64 9.33 8.28 9.66 11 10 C11 10.99 11 11.98 11 13 C10.40832031 12.88140625 9.81664062 12.7628125 9.20703125 12.640625 C3.86286073 11.68827643 3.86286073 11.68827643 -0.9375 13.9375 C-1.618125 14.618125 -2.29875 15.29875 -3 16 C-3.66 16 -4.32 16 -5 16 C-4.75 14.1875 -4.75 14.1875 -4 12 C-3.319375 11.608125 -2.63875 11.21625 -1.9375 10.8125 C0.21561368 9.18821195 0.21561368 9.18821195 0.26171875 6.8125 C0.25101892 4.52986871 0.17176392 2.275872 0 0 Z " fill="#D90000" transform="translate(5,0)"/>
<path d="M0 0 C2.97 0.33 5.94 0.66 9 1 C9 1.99 9 2.98 9 4 C2.25 3.125 2.25 3.125 0 2 C0 1.34 0 0.68 0 0 Z " fill="#01E100" transform="translate(7,9)"/>
<path d="M0 0 C0.99 0 1.98 0 3 0 C3 2.97 3 5.94 3 9 C2.34 9 1.68 9 1 9 C0.67 6.03 0.34 3.06 0 0 Z " fill="#0000E7" transform="translate(5,0)"/>
</svg>
