<?xml version="1.0" encoding="UTF-8"?>
<svg version="1.1" xmlns="http://www.w3.org/2000/svg" width="16" height="16">
<path d="M0 0 C0.02693575 2.12493141 0.04636628 4.24995912 0.0625 6.375 C0.07410156 7.55835938 0.08570312 8.74171875 0.09765625 9.9609375 C0 13 0 13 -1 15 C-3.109375 15.44921875 -3.109375 15.44921875 -5.75 15.6875 C-7.04164062 15.81705078 -7.04164062 15.81705078 -8.359375 15.94921875 C-11.06399328 16.00123064 -13.37621287 15.62763253 -16 15 C-16.02685938 12.85423363 -16.04633088 10.70837355 -16.0625 8.5625 C-16.07410156 7.36753906 -16.08570312 6.17257812 -16.09765625 4.94140625 C-16 2 -16 2 -15 1 C-13.6116708 0.76325334 -12.21309334 0.58530131 -10.8125 0.4375 C-10.05582031 0.35371094 -9.29914062 0.26992187 -8.51953125 0.18359375 C-5.67259917 -0.02385711 -2.85348849 -0.02890654 0 0 Z " fill="#6B6C69" transform="translate(16,0)"/>
<path d="M0 0 C3.96 0 7.92 0 12 0 C12.33 0.66 12.66 1.32 13 2 C10.69 2 8.38 2 6 2 C6 4.97 6 7.94 6 11 C8.31 11 10.62 11 13 11 C13 11.33 13 11.66 13 12 C9.04 12 5.08 12 1 12 C-0.07396066 7.70415737 -0.07329796 4.39787789 0 0 Z " fill="#B6B6B6" transform="translate(1,2)"/>
<path d="M0 0 C2.31 0 4.62 0 7 0 C7 2.31 7 4.62 7 7 C4.69 7 2.38 7 0 7 C-0.93423645 3.98968256 -1.04449911 3.13349732 0 0 Z " fill="#D3D3D3" transform="translate(8,5)"/>
<path d="M0 0 C1.32 0.66 2.64 1.32 4 2 C4 2.66 4 3.32 4 4 C6.31 4 8.62 4 11 4 C11 4.33 11 4.66 11 5 C7.04 5 3.08 5 -1 5 C-1.33 4.01 -1.66 3.02 -2 2 C-1.34 2 -0.68 2 0 2 C0 1.34 0 0.68 0 0 Z " fill="#949494" transform="translate(3,9)"/>
<path d="M0 0 C1.65 0 3.3 0 5 0 C5 1.65 5 3.3 5 5 C3.35 5 1.7 5 0 5 C0 3.35 0 1.7 0 0 Z " fill="#2E568F" transform="translate(9,6)"/>
</svg>
